<svg xmlns="http://www.w3.org/2000/svg" viewBox="0 0 800 600" preserveAspectRatio="xMidYMid slice" role="img" aria-label="Esgoto">
<defs>
<linearGradient id="sky" x1="0" y1="0" x2="0" y2="1"><stop offset="0" stop-color="#16306f"/><stop offset="1" stop-color="#2a55b8"/></linearGradient>
<linearGradient id="flo" x1="0" y1="0" x2="0" y2="1"><stop offset="0" stop-color="#1d3a86"/><stop offset="1" stop-color="#142a63"/></linearGradient>
<radialGradient id="lit" cx="0.3" cy="0.15" r="0.9"><stop offset="0" stop-color="#5b86e6" stop-opacity="0.55"/><stop offset="1" stop-color="#5b86e6" stop-opacity="0"/></radialGradient>
<linearGradient id="o" x1="0" y1="0" x2="1" y2="0"><stop offset="0" stop-color="#FF9F1C"/><stop offset="1" stop-color="#FF7A00"/></linearGradient></defs>
<rect width="800" height="600" fill="url(#sky)"/><rect width="800" height="600" fill="url(#lit)"/>
<circle cx="660" cy="120" r="150" fill="#fff" opacity="0.05"/><circle cx="120" cy="470" r="180" fill="#fff" opacity="0.04"/>
<rect x="0" y="430" width="800" height="170" fill="url(#flo)"/><rect x="0" y="430" width="800" height="4" fill="#FF9F1C" opacity="0.8"/>
<g stroke="#fff" stroke-width="10" fill="none" stroke-linecap="round" stroke-linejoin="round">
<ellipse cx="400" cy="430" rx="110" ry="34" fill="#1b337e" stroke="#fff"/><ellipse cx="400" cy="424" rx="80" ry="22" fill="#26489c" stroke="#bcd2ff" stroke-width="6"/>
<path d="M250 330h120v-60h60v60h120" /><path d="M250 330v40M610 330v40"/>
<path d="M380 250a40 40 0 1 1 40 40" stroke="#FF9F1C" stroke-width="12"/><path d="M408 286l14 6 4-16" stroke="#FF9F1C" stroke-width="10"/></g>
<rect x="0" y="560" width="800" height="40" fill="url(#o)"/>
<text x="40" y="588" fill="#fff" font-family="Poppins,Arial,sans-serif" font-size="28" font-weight="700">Esgoto</text>
</svg>