<svg xmlns="http://www.w3.org/2000/svg" viewBox="0 0 800 600" preserveAspectRatio="xMidYMid slice" role="img" aria-label="Condomínios">
<defs>
<linearGradient id="sky" x1="0" y1="0" x2="0" y2="1"><stop offset="0" stop-color="#16306f"/><stop offset="1" stop-color="#2a55b8"/></linearGradient>
<linearGradient id="flo" x1="0" y1="0" x2="0" y2="1"><stop offset="0" stop-color="#1d3a86"/><stop offset="1" stop-color="#142a63"/></linearGradient>
<radialGradient id="lit" cx="0.3" cy="0.15" r="0.9"><stop offset="0" stop-color="#5b86e6" stop-opacity="0.55"/><stop offset="1" stop-color="#5b86e6" stop-opacity="0"/></radialGradient>
<linearGradient id="o" x1="0" y1="0" x2="1" y2="0"><stop offset="0" stop-color="#FF9F1C"/><stop offset="1" stop-color="#FF7A00"/></linearGradient></defs>
<rect width="800" height="600" fill="url(#sky)"/><rect width="800" height="600" fill="url(#lit)"/>
<circle cx="660" cy="120" r="150" fill="#fff" opacity="0.05"/><circle cx="120" cy="470" r="180" fill="#fff" opacity="0.04"/>
<rect x="0" y="430" width="800" height="170" fill="url(#flo)"/><rect x="0" y="430" width="800" height="4" fill="#FF9F1C" opacity="0.8"/>
<g stroke="#fff" stroke-width="8" fill="none" stroke-linejoin="round">
<rect x="250" y="170" width="110" height="260" fill="#26489c" stroke="#fff"/>
<rect x="380" y="240" width="100" height="190" fill="#2f5bd0" stroke="#fff"/>
<rect x="500" y="290" width="80" height="140" fill="#26489c" stroke="#fff"/>
<g stroke="#bcd2ff" stroke-width="6">
<path d="M272 200h22M320 200h22M272 240h22M320 240h22M272 280h22M320 280h22M272 320h22M320 320h22"/>
<path d="M400 270h22M448 270h22M400 310h22M448 310h22M400 350h22M448 350h22"/></g>
<rect x="300" y="380" width="20" height="50" fill="#FF9F1C" stroke="none"/></g>
<rect x="0" y="560" width="800" height="40" fill="url(#o)"/>
<text x="40" y="588" fill="#fff" font-family="Poppins,Arial,sans-serif" font-size="28" font-weight="700">Condomínios</text>
</svg>