<svg xmlns="http://www.w3.org/2000/svg" viewBox="0 0 800 600" preserveAspectRatio="xMidYMid slice" role="img" aria-label="Equipe Grupo i9">
<defs>
<linearGradient id="sky" x1="0" y1="0" x2="0" y2="1"><stop offset="0" stop-color="#16306f"/><stop offset="1" stop-color="#2a55b8"/></linearGradient>
<linearGradient id="flo" x1="0" y1="0" x2="0" y2="1"><stop offset="0" stop-color="#1d3a86"/><stop offset="1" stop-color="#142a63"/></linearGradient>
<radialGradient id="lit" cx="0.3" cy="0.15" r="0.9"><stop offset="0" stop-color="#5b86e6" stop-opacity="0.55"/><stop offset="1" stop-color="#5b86e6" stop-opacity="0"/></radialGradient>
<linearGradient id="o" x1="0" y1="0" x2="1" y2="0"><stop offset="0" stop-color="#FF9F1C"/><stop offset="1" stop-color="#FF7A00"/></linearGradient></defs>
<rect width="800" height="600" fill="url(#sky)"/><rect width="800" height="600" fill="url(#lit)"/>
<circle cx="660" cy="120" r="150" fill="#fff" opacity="0.05"/><circle cx="120" cy="470" r="180" fill="#fff" opacity="0.04"/>
<rect x="0" y="430" width="800" height="170" fill="url(#flo)"/><rect x="0" y="430" width="800" height="4" fill="#FF9F1C" opacity="0.8"/>
<g stroke="#fff" stroke-width="9" fill="none" stroke-linecap="round" stroke-linejoin="round">
<line x1="250" y1="430" x2="250" y2="200"/><path d="M250 210h150v60h-150"/><rect x="250" y="200" width="160" height="14" fill="#fff" stroke="none"/>
<circle cx="470" cy="250" r="42" fill="#dfeaff" stroke="#fff"/><path d="M470 292v70" /><path d="M470 312l-45 30M470 312l45 30" /><path d="M470 362l-30 68M470 362l30 68"/>
<path d="M520 250l34-34 26 26-34 34" stroke="#FF9F1C" stroke-width="14"/></g>
<rect x="0" y="560" width="800" height="40" fill="url(#o)"/>
<text x="40" y="588" fill="#fff" font-family="Poppins,Arial,sans-serif" font-size="28" font-weight="700">Equipe Grupo i9</text>
</svg>